<svg xmlns="http://www.w3.org/2000/svg" xmlns:xlink="http://www.w3.org/1999/xlink" version="1.1" x="0px" y="0px" viewBox="0 0 100 125" enable-background="new 0 0 100 100" xml:space="preserve"><circle cx="16.312" cy="45.754" r="4.67"/><circle cx="50.021" cy="29.462" r="4.669"/><circle cx="50.021" cy="62.045" r="4.669"/><circle cx="83.728" cy="12.048" r="4.669"/><circle cx="83.728" cy="44.63" r="4.669"/><path d="M83.728,62.045c7.008,0,12.709-5.701,12.709-12.71s-5.702-12.71-12.709-12.71c-4.682,0-8.776,2.545-10.981,6.324  l-10.025-8.451c0.003-0.11,0.009-0.22,0.009-0.331c0-0.839-0.084-1.657-0.24-2.452l10.226-8.629  c2.198,3.807,6.31,6.377,11.013,6.377c7.008,0,12.709-5.701,12.709-12.71c0-7.008-5.702-12.71-12.709-12.71  c-7.009,0-12.709,5.701-12.709,12.71c0,1.896,0.42,3.694,1.167,5.312L62.188,30.5c-1.578-5.226-6.435-9.044-12.167-9.044  c-7.01,0-12.71,5.701-12.71,12.71c0,1.896,0.42,3.694,1.168,5.312l-9.759,8.234c-1.258-5.692-6.342-9.965-12.407-9.965  c-7.009,0-12.709,5.701-12.709,12.71s5.7,12.71,12.709,12.71c6.086,0,11.184-4.301,12.42-10.022l9.771,8.235  c-0.764,1.632-1.193,3.451-1.193,5.369c0,7.008,5.7,12.709,12.71,12.709c6.428,0,11.754-4.799,12.591-11.002l9.6,8.092  c-0.764,1.632-1.192,3.451-1.192,5.368c0,7.009,5.7,12.71,12.709,12.71c7.008,0,12.709-5.701,12.709-12.71  c0-7.008-5.702-12.71-12.709-12.71c-4.681,0-8.776,2.546-10.981,6.323l-10.025-8.45c0.003-0.111,0.009-0.221,0.009-0.33  c0-0.84-0.084-1.659-0.24-2.453l10.226-8.629C74.912,59.475,79.024,62.045,83.728,62.045z M72.141,16.752  c0-6.389,5.197-11.586,11.586-11.586s11.586,5.197,11.586,11.586c0.001,3.129-1.252,5.966-3.273,8.053  c-0.635-4.023-4.108-7.104-8.312-7.104c-4.202,0-7.677,3.08-8.312,7.104C73.391,22.718,72.141,19.881,72.141,16.752z M24.625,58.51  c-0.635-4.023-4.109-7.104-8.313-7.104c-4.202,0-7.677,3.08-8.313,7.104c-2.022-2.086-3.273-4.924-3.273-8.052  c0-6.39,5.197-11.587,11.586-11.587c6.388,0,11.586,5.197,11.586,11.588C27.898,53.588,26.646,56.424,24.625,58.51z M83.727,70.331  c6.389,0,11.586,5.196,11.586,11.586c0.001,3.13-1.252,5.966-3.273,8.053c-0.635-4.024-4.108-7.104-8.312-7.104  c-4.202,0-7.677,3.079-8.312,7.104c-2.023-2.087-3.273-4.924-3.273-8.053C72.141,75.527,77.338,70.331,83.727,70.331z   M83.727,37.749c6.389,0,11.586,5.197,11.586,11.586c0.001,3.128-1.251,5.966-3.273,8.052c-0.635-4.024-4.108-7.104-8.312-7.104  c-4.202,0-7.677,3.08-8.312,7.104c-2.023-2.086-3.273-4.924-3.273-8.052C72.141,42.946,77.338,37.749,83.727,37.749z M38.433,34.167  c0-6.39,5.198-11.587,11.586-11.587s11.585,5.197,11.585,11.587c0.001,3.128-1.251,5.965-3.272,8.052  c-0.635-4.024-4.108-7.104-8.312-7.104c-4.203,0-7.677,3.08-8.313,7.104C39.684,40.132,38.433,37.295,38.433,34.167z M58.332,74.802  c-0.635-4.024-4.108-7.104-8.312-7.104c-4.203,0-7.677,3.081-8.313,7.104c-2.022-2.087-3.273-4.924-3.273-8.052  c0-6.391,5.198-11.587,11.586-11.587s11.585,5.196,11.585,11.587C61.605,69.879,60.354,72.715,58.332,74.802z M62.188,63.082  c-1.578-5.226-6.435-9.043-12.167-9.043c-4.682,0-8.776,2.546-10.981,6.323l-10.096-8.51c0.051-0.457,0.079-0.924,0.079-1.394  c0-0.494-0.031-0.98-0.085-1.46L39.009,40.5c2.198,3.807,6.31,6.376,11.013,6.376c6.428,0,11.754-4.798,12.591-11.001l9.601,8.092  c-0.764,1.631-1.193,3.45-1.193,5.368c0,1.895,0.42,3.693,1.167,5.311L62.188,63.082z"/><circle cx="83.728" cy="77.213" r="4.669"/><text x="0" y="115" fill="#000000" font-size="5px" font-weight="bold" font-family="'Helvetica Neue', Helvetica, Arial-Unicode, Arial, Sans-serif">Created by corpus delicti</text><text x="0" y="120" fill="#000000" font-size="5px" font-weight="bold" font-family="'Helvetica Neue', Helvetica, Arial-Unicode, Arial, Sans-serif">from the Noun Project</text></svg>